# Blender 3.6.3
# www.blender.org
mtllib Agua.mtl
o Plane
v 162.334595 -0.000002 -66.101974
v 162.334595 -0.000002 -321.837830
v 2.787448 -0.189600 -65.755630
v 0.257639 -0.189600 -65.755676
v -4.943315 -0.229137 -68.467712
v -118.447113 -0.000002 -92.064468
v -118.706665 -0.000002 -94.405151
v -118.986618 -0.000002 -98.950333
v -117.476929 -0.000002 -89.918556
v -115.891113 -0.000002 -88.177490
v -113.844879 -0.000002 -87.011658
v -108.465637 -0.000002 -87.125809
v -109.197861 -0.000002 -86.794762
v -111.538544 -0.000002 -86.535217
v -77.717758 -0.000002 -69.040817
v -89.761490 -0.000002 -78.343620
v -76.367416 -0.000002 -67.111374
v -74.486908 -0.000002 -65.693680
v -69.905685 -0.000002 -64.884811
v -64.756073 -0.000002 -66.572418
v -67.653412 -0.000002 -65.572845
v -72.260361 -0.000002 -64.926453
v -44.049370 -0.000002 -66.572418
v -29.479145 -0.000002 -64.498810
v -29.479137 -0.000002 -65.113159
v -29.479137 -0.000002 -65.440552
v -29.008270 -0.000002 -66.572418
v -17.517960 -0.000002 -64.498810
v -17.517962 -0.000002 -64.969666
v -28.537405 -0.000002 -64.498810
v -28.537405 -0.000002 -64.969666
v -17.047094 -0.000002 -66.700958
v -13.281462 -0.000002 -65.238586
v -16.576229 -0.000002 -64.498810
v -16.576221 -0.000002 -65.440552
v -16.680557 -0.000002 -67.017746
v -11.282322 -0.000002 -65.238586
v -10.823462 -0.000002 -67.017746
v -12.053397 -0.000002 -65.238571
v -7.141191 -0.000002 -65.238586
v -17.047094 -0.000002 -65.440552
v -168.768799 -0.000002 -309.432404
v -3.053081 -0.000002 -65.755646
v -2.665693 -0.000002 -65.755646
v -0.935938 -0.000002 -65.755661
v 0.548846 -0.000002 -65.755676
v 0.228326 -0.000002 -65.755676
v 3.981029 -0.000002 -65.755646
v 2.816761 -0.000002 -65.755630
v 6.098178 -0.000002 -65.755646
v 5.710788 -0.000002 -65.755646
v 19.783411 -0.000002 -67.016602
v 15.909283 -0.000002 -65.238586
v 19.312529 -0.000002 -64.498825
v 19.312529 -0.000002 -65.440552
v 19.725674 -0.000002 -67.017746
v 9.769010 -0.000002 -65.238571
v 31.273705 -0.000002 -64.498825
v 20.254271 -0.000002 -64.498795
v 20.254276 -0.000002 -64.969666
v 31.650288 -0.000002 -66.572418
v 31.744579 -0.000002 -66.700974
v 31.273708 -0.000002 -64.969681
v 32.215458 -0.000002 -65.440552
v 52.356987 -0.000002 -66.572418
v 32.215454 -0.000002 -64.498810
v 65.335556 -0.000002 -65.865540
v 64.400436 -0.000002 -74.566216
v 64.403351 -0.000002 -74.571930
v 64.766068 -0.000002 -75.283798
v 31.744579 -0.000002 -66.572418
v 68.529663 -0.000002 -63.700607
v 70.855698 -0.000002 -63.332184
v 66.431320 -0.000002 -64.769775
v 68.056503 -0.000002 -74.571930
v 75.280106 -0.000002 -64.769760
v 73.181747 -0.000002 -63.700607
v 78.382919 -0.000002 -70.859421
v 78.396027 -0.000002 -71.820641
v 78.181137 -0.000002 -72.133537
v 78.014511 -0.000002 -68.533371
v 100.443756 -0.000002 -270.321259
v 100.339951 -0.000002 -270.883942
v 76.945358 -0.000002 -66.435013
v 106.190445 -0.000002 -279.281952
v 109.066299 -0.000002 -90.267242
v 106.740234 -0.000002 -90.635674
v 103.731995 -0.000002 -278.208618
v 103.996658 -0.000002 -278.425446
v 106.195389 -0.000002 -90.913277
v 100.405106 -0.000002 -270.986084
v 108.541489 -0.000002 -279.418640
v 110.819717 -0.000002 -278.822113
v 114.294617 -0.000002 -275.729034
v 112.802139 -0.000002 -277.550751
v 115.843262 -0.000002 -101.837006
v 115.155930 -0.000002 -102.218872
v 116.593491 -0.000002 -97.794472
v 116.225098 -0.000002 -95.468430
v 116.225113 -0.000002 -100.120499
v 115.287781 -0.000002 -271.184204
v 115.151123 -0.000002 -273.535278
v 115.155930 -0.000002 -93.370087
v 115.107910 -0.000002 -102.266884
v 114.691254 -0.000002 -268.906006
v 114.361160 -0.000002 -268.391266
v 129.865982 -0.000002 -238.430298
v 130.612350 -0.000002 -238.840759
v 129.931839 -0.000002 -238.446869
v 135.035568 -0.000002 -224.953918
v 133.474548 -0.000002 -130.932343
v 134.466858 -0.000002 -237.409760
v 132.281494 -0.000002 -238.287445
v 137.526154 -0.000002 -233.905121
v 136.155319 -0.000002 -144.996735
v 137.319443 -0.000002 -178.020523
v 136.774002 -0.000002 -177.744202
v 137.347610 -0.000002 -190.199783
v 137.153168 -0.000002 -191.296097
v 136.632462 -0.000002 -190.566254
v 137.941208 -0.000002 -229.271606
v 137.063522 -0.000002 -227.086243
v 139.997772 -0.000002 -139.344574
v 140.062576 -0.000002 -181.777802
v 140.436340 -0.000002 -184.102982
v 139.924149 -0.000002 -136.990692
v 140.073334 -0.000002 -186.429871
v 139.126724 -0.000002 -134.774750
v 139.340408 -0.000002 -141.606003
v 139.009018 -0.000002 -188.530685
v 138.100616 -0.000002 -231.621246
v 137.683594 -0.000002 -132.913712
v 138.016418 -0.000002 -143.553589
v 138.988571 -0.000002 -179.681931
v 136.274048 -0.000002 -235.899719
v 135.735962 -0.000002 -131.589722
v 135.833374 -0.000002 -145.112610
v 135.553482 -0.000002 -225.279037
v 111.392334 -0.000002 -90.635674
v 113.490662 -0.000002 -91.704819
v 132.863403 -0.000002 -130.951447
v -3.053082 -0.000002 -67.017731
v 31.744579 -0.000002 -65.440552
v 19.783413 -0.000002 -65.440552
v -146.331894 -0.000002 -177.256485
v -144.724243 -0.000002 -173.039078
v -145.734756 -0.000002 -174.978409
v -146.128143 -0.000002 -176.479156
v -144.154938 -0.000002 -245.880798
v -144.114746 -0.000002 -240.463348
v -144.531372 -0.000002 -206.525406
v -143.974197 -0.000002 -243.532715
v -144.506439 -0.000002 -173.064285
v -143.601227 -0.000002 -248.169815
v -141.511276 -0.000002 -128.542664
v -142.349228 -0.000002 -152.515320
v -142.866089 -0.000002 -130.468964
v -143.021118 -0.000002 -136.542389
v -143.523148 -0.000002 -135.074402
v -142.367279 -0.000002 -250.175690
v -143.559341 -0.000002 -132.719635
v -142.298523 -0.000002 -240.441055
v -143.076721 -0.000002 -241.355392
v -136.048477 -0.000002 -252.780304
v -134.540512 -0.000002 -252.415527
v -138.867172 -0.000002 -126.869255
v -138.396561 -0.000002 -252.599564
v -139.627518 -0.000002 -127.129295
v -140.573883 -0.000002 -251.702072
v -122.936966 -0.000002 -263.631042
v -107.862991 -0.000002 -281.480927
v -106.568665 -0.000002 -283.448364
v -100.173660 -0.000002 -285.859833
v -97.902512 -0.000002 -285.236816
v -104.729721 -0.000002 -284.919586
v -102.526154 -0.000002 -285.750488
v -124.813293 -0.000002 -108.344398
v -66.835480 -0.000002 -299.276611
v -67.654114 -0.000002 -300.807068
v -66.737625 -0.000002 -301.439270
v -85.872391 -0.000002 -291.062286
v -65.909393 -0.000002 -303.643860
v -64.440430 -0.000002 -305.484589
v -57.851562 -0.000002 -307.300629
v -55.646961 -0.000002 -306.472382
v -43.134155 -0.000002 -311.172485
v -62.474552 -0.000002 -306.781311
v -60.204185 -0.000002 -307.407074
v -24.100492 -0.000002 -319.208984
v -20.090460 -0.000002 -320.528961
v -22.136574 -0.000002 -319.362915
v -23.522772 -0.000002 -317.840729
v -13.297465 -0.000002 -319.776306
v -15.443475 -0.000002 -320.746277
v -11.556229 -0.000002 -318.190674
v -11.253473 -0.000002 -317.659363
v -17.784172 -0.000002 -321.005615
v 22.497152 -0.000002 -317.555847
v 22.481270 -0.000002 -317.489868
v 22.464045 -0.000002 -318.341461
v 27.696594 -0.000002 -321.991760
v 25.520334 -0.000002 -321.091705
v 23.728727 -0.000002 -319.563202
v 34.341454 -0.000002 -320.392700
v 32.334126 -0.000002 -321.624268
v 36.770020 -0.000002 -316.424835
v 36.817669 -0.000002 -315.815186
v 35.869961 -0.000002 -318.601074
v 30.044464 -0.000002 -322.175262
v 68.099152 -0.000002 -303.218842
v 66.138260 -0.000002 -302.730438
v 72.631729 -0.000002 -302.171265
v 76.252121 -0.000002 -296.374329
v 76.209320 -0.000002 -295.764404
v 75.682953 -0.000002 -298.659576
v 74.435425 -0.000002 -300.657043
v 70.448410 -0.000002 -303.054016
v -3.676003 -0.229137 -68.467712
v -3.676002 -0.229136 -68.467712
v -162.263580 -0.000002 -325.666931
v -156.522736 -0.000002 -333.047974
v -147.571381 -0.000002 -341.737183
v -172.395813 -0.000002 -292.574585
v -138.303360 -0.000002 -347.399475
v 64.403351 -0.058927 -74.571930
v 31.744579 -0.253051 -66.572418
v 140.553268 -0.000002 -347.399475
v 145.521210 -0.000002 -346.647766
v 148.704712 -0.000002 -345.307739
v 152.459946 -0.000002 -343.658386
v 155.604599 -0.000002 -339.811890
v 158.232483 -0.000002 -334.982300
v 159.434586 -0.000002 -332.204712
v 160.630768 -0.000002 -329.933960
v 161.313477 -0.000002 -325.961365
v -172.395813 -0.000002 -76.327896
v -117.917908 -0.000002 -38.154007
v -160.089218 -0.000002 -49.753769
v -157.407944 -0.000002 -46.634735
v -151.302399 -0.000002 -43.306259
v -142.547516 -0.000002 -40.913559
v -133.357422 -0.000002 -40.962692
v -127.610672 -0.000002 -40.110580
v -170.269302 -0.000002 -67.180283
v -169.514236 -0.000002 -62.241302
v -166.325745 -0.000002 -59.094116
v -161.810104 -0.000002 -51.527237
v 153.673798 -0.000002 -47.649399
v 137.463745 -0.000002 -38.154007
v 152.659012 -0.000002 -46.894943
v 147.761032 -0.000002 -43.626068
v 144.111404 -0.000002 -40.846954
v 140.583939 -0.000002 -40.400589
v 159.658600 -0.000002 -56.617981
v 156.259766 -0.000002 -51.535446
vn -0.0000 1.0000 -0.0000
vn -0.0000 -0.0000 1.0000
vn -0.0000 -0.0000 -1.0000
vn -0.0000 0.0001 -1.0000
vn -0.0000 -0.0001 -1.0000
vn -1.0000 -0.0000 -0.0000
vn 0.8907 -0.0000 0.4547
vn 0.4303 -0.0000 0.9027
vn 0.6624 -0.0000 0.7491
vn 0.8910 -0.0000 0.4540
vn -0.0000 -1.0000 -0.0000
vt 0.475351 0.045520
vt 0.465508 0.046204
vt 0.465508 0.043018
vt 0.464101 0.050467
vt 0.464101 0.046204
vt 0.814792 0.741167
vt 0.815102 0.739264
vt 0.814987 0.741513
vt 0.505908 0.051539
vt 0.493695 0.045520
vt 0.505908 0.047270
vt 0.383432 0.050032
vt 0.426961 0.046204
vt 0.428367 0.050032
vt 0.082668 0.410183
vt 0.083319 0.410268
vt 0.079649 0.416743
vt 0.086256 0.281757
vt 0.087756 0.286723
vt 0.089763 0.340756
vt 0.030270 0.926484
vt 0.202151 0.788646
vt 0.328387 0.862599
vt 0.519474 0.896328
vt 0.497066 0.904019
vt 0.516906 0.897209
vt 0.369896 0.862324
vt 0.369895 0.862443
vt 0.369928 0.859884
vt 0.369559 0.888419
vt 0.083685 0.162888
vt 0.043294 0.160268
vt 0.067194 0.160268
vt 0.083280 0.160268
vt 0.128057 0.161392
vt 0.135129 0.160268
vt 0.118638 0.162888
vt 0.159029 0.160268
vt 0.087709 0.160268
vt 0.119043 0.160268
vt 0.083193 0.159706
vt 0.284740 0.913543
vt 0.284740 0.913543
vt 0.284740 1.000000
vt 0.075061 0.613235
vt 0.075025 0.608471
vt 0.077436 0.608471
vt 0.053800 0.608471
vt 0.974126 0.023946
vt 0.733658 0.040318
vt 0.726709 0.039072
vt 0.385580 0.850874
vt 0.385460 0.851978
vt 0.385460 0.850874
vt 0.370503 0.850874
vt 0.465196 0.051539
vt 0.479020 0.045520
vt 0.482694 0.051539
vt 0.426961 0.045096
vt 0.582140 0.901704
vt 0.582191 0.898823
vt 0.582239 0.899046
vt 0.585918 0.905837
vt 0.480505 0.901194
vt 0.481409 0.899397
vt 0.475303 0.906558
vt 0.468892 0.909839
vt 0.591270 0.911007
vt 0.461899 0.910716
vt 0.597772 0.914052
vt 0.604786 0.914673
vt 0.443029 0.904639
vt 0.444755 0.900010
vt 0.448896 0.905159
vt 0.348785 0.861554
vt 0.386166 0.877453
vt 0.342199 0.864356
vt 0.455009 0.909104
vt 0.335170 0.864716
vt 0.624879 0.895221
vt 0.625021 0.893158
vt 0.712615 0.848896
vt 0.718474 0.850548
vt 0.622190 0.902582
vt 0.725492 0.849990
vt 0.617623 0.908643
vt 0.732015 0.847004
vt 0.611626 0.912809
vt 0.312914 0.842390
vt 0.315359 0.837212
vt 0.315652 0.844528
vt 0.222547 0.789719
vt 0.258487 0.809425
vt 0.215762 0.791827
vt 0.318126 0.851986
vt 0.208734 0.791457
vt 0.322514 0.858212
vt 0.147757 0.716632
vt 0.192790 0.777014
vt 0.196657 0.783669
vt 0.113092 0.678693
vt 0.108587 0.679927
vt 0.101572 0.679316
vt 0.095067 0.676280
vt 0.089710 0.671116
vt 0.742831 0.827395
vt 0.742703 0.825331
vt 0.824926 0.765945
vt 0.825717 0.766678
vt 0.741130 0.835125
vt 0.832271 0.769576
vt 0.737403 0.841882
vt 0.839294 0.770038
vt 0.846100 0.768020
vt 0.857667 0.734476
vt 0.856680 0.732735
vt 0.905231 0.632773
vt 0.903001 0.631385
vt 0.903197 0.631441
vt 0.910217 0.630901
vt 0.859449 0.742183
vt 0.859040 0.750136
vt 0.856482 0.757557
vt 0.916746 0.627932
vt 0.922145 0.622824
vt 0.925885 0.616077
vt 0.919992 0.586897
vt 0.918445 0.585797
vt 0.924771 0.471941
vt 0.923215 0.469473
vt 0.925352 0.468233
vt 0.930315 0.462587
vt 0.924503 0.593011
vt 0.927125 0.600403
vt 0.927602 0.608351
vt 0.933495 0.455480
vt 0.934579 0.447609
vt 0.084489 0.638262
vt 0.089915 0.638186
vt 0.087590 0.641279
vt 0.077865 0.424449
vt 0.083244 0.523458
vt 0.078474 0.421819
vt 0.086148 0.273792
vt 0.084909 0.648645
vt 0.084369 0.656588
vt 0.925268 0.427033
vt 0.923638 0.426099
vt 0.920828 0.315714
vt 0.921790 0.315322
vt 0.930254 0.432654
vt 0.927350 0.310440
vt 0.933463 0.439743
vt 0.931305 0.303852
vt 0.933269 0.296202
vt 0.913781 0.267746
vt 0.911955 0.267811
vt 0.861108 0.169324
vt 0.858911 0.170778
vt 0.859055 0.170615
vt 0.862249 0.163517
vt 0.920537 0.269970
vt 0.926356 0.274448
vt 0.930667 0.280744
vt 0.863349 0.155649
vt 0.862249 0.147780
vt 0.859055 0.140682
vt 0.854080 0.135049
vt 0.981852 0.038495
vt 0.992006 0.057450
vt 1.000000 0.089999
vt 0.933049 0.288240
vt 1.000000 0.913531
vt 0.996949 0.927480
vt 0.994910 0.940919
vt 0.991336 0.948600
vt 0.987745 0.957996
vt 0.979895 0.974333
vt 0.970500 0.987345
vt 0.959281 0.992925
vt 0.949770 0.997457
vt 0.934929 1.000000
vt 0.101850 1.000000
vt 0.074162 0.980846
vt 0.047420 0.951452
vt 0.010836 0.871567
vt 0.000000 0.814541
vt 0.000000 0.122216
vt 0.006353 0.091545
vt 0.008609 0.075244
vt 0.018134 0.063075
vt 0.031625 0.035790
vt 0.036766 0.028909
vt 0.164069 0.129007
vt 0.161171 0.136266
vt 0.160395 0.144184
vt 0.159559 0.159559
vt 0.142152 0.191337
vt 0.100166 0.254001
vt 0.097895 0.254881
vt 0.092267 0.259662
vt 0.088219 0.266178
vt 0.852023 0.763719
vt 0.086023 0.664331
vt 0.574131 0.046204
vt 0.574131 0.051535
vt 0.573959 0.051539
vt 0.572725 0.046204
vt 0.562558 0.045520
vt 0.544214 0.045520
vt 0.533247 0.047270
vt 0.532090 0.047270
vt 0.572725 0.043018
vt 0.526922 0.047270
vt 0.608458 0.044611
vt 0.575538 0.044611
vt 0.575538 0.043018
vt 0.608458 0.043018
vt 0.611272 0.043018
vt 0.609865 0.050032
vt 0.609865 0.046204
vt 0.611272 0.046204
vt 0.710217 0.047641
vt 0.671444 0.050032
vt 0.713491 0.043935
vt 0.719760 0.040318
vt 0.523444 0.047269
vt 0.516669 0.047270
vt 0.481323 0.045520
vt 0.462694 0.043018
vt 0.462694 0.044611
vt 0.429774 0.044611
vt 0.429774 0.043018
vt 0.426961 0.043018
vt 0.321571 0.050032
vt 0.312916 0.046651
vt 0.306187 0.044324
vt 0.286883 0.051856
vt 0.282849 0.058382
vt 0.246868 0.089851
vt 0.190990 0.119559
vt 0.188803 0.118440
vt 0.181810 0.117562
vt 0.174920 0.119173
vt 0.292501 0.047060
vt 0.168807 0.123117
vt 0.044776 0.020990
vt 0.063016 0.012616
vt 0.089171 0.006681
vt 0.116626 0.006734
vt 0.133795 0.004650
vt 0.162752 0.000000
vt 0.925699 0.000000
vt 0.935020 0.005497
vt 0.945559 0.006619
vt 0.956462 0.013582
vt 0.971095 0.021980
vt 0.847811 0.131432
vt 0.840862 0.130186
vt 0.299153 0.044465
vt 0.833913 0.131432
vt 0.832285 0.132371
vt 0.749235 0.067786
vt 0.748593 0.068844
vt 0.749196 0.064534
vt 0.748096 0.056666
vt 0.744901 0.049568
vt 0.739927 0.043935
s 0
usemtl Material.001
f 33/1/1 35/2/1 34/3/1
f 35/2/1 32/4/1 41/5/1
f 83/6/1 82/7/1 91/8/1
f 142/9/1 40/10/1 43/11/1
f 23/12/1 26/13/1 27/14/1
f 146/15/1 153/16/1 147/17/1
f 159/18/1 158/19/1 156/20/1
f 220/21/1 175/22/1 187/23/1
f 225/24/2 75/25/2 69/26/2
f 61/27/3 71/28/3 226/29/3
f 226/29/3 71/28/3 65/30/3
f 4/31/4 44/32/4 45/33/4
f 4/31/3 45/33/3 47/34/3
f 49/35/3 48/36/3 3/37/3
f 48/36/3 51/38/3 3/37/3
f 3/37/5 46/39/5 49/40/5
f 4/31/3 47/34/3 46/41/3
s 1
f 218/42/2 219/43/2 5/44/2
s 0
f 226/45/6 71/46/6 62/47/6
f 226/45/6 143/48/6 71/46/6
f 248/49/1 77/50/1 73/51/1
s 1
f 68/52/7 225/53/8 69/54/9
f 225/53/8 70/55/10 69/54/9
s 0
f 33/1/1 36/56/1 35/2/1
f 34/3/1 39/57/1 33/1/1
f 142/9/1 38/58/1 40/10/1
f 23/12/1 25/59/1 26/13/1
f 200/60/1 199/61/1 198/62/1
f 200/60/1 198/62/1 203/63/1
f 195/64/1 196/65/1 200/60/1
f 193/66/1 195/64/1 200/60/1
f 193/66/1 200/60/1 203/63/1
f 194/67/1 193/66/1 203/63/1
f 194/67/1 203/63/1 202/68/1
f 197/69/1 194/67/1 202/68/1
f 197/69/1 202/68/1 201/70/1
f 197/69/1 201/70/1 209/71/1
f 189/72/1 192/73/1 191/74/1
f 185/75/1 186/76/1 189/72/1
f 184/77/1 185/75/1 189/72/1
f 189/72/1 191/74/1 190/78/1
f 188/79/1 184/77/1 189/72/1
f 187/23/1 188/79/1 189/72/1
f 187/23/1 189/72/1 190/78/1
f 206/80/1 207/81/1 211/82/1
f 206/80/1 211/82/1 210/83/1
f 208/84/1 206/80/1 210/83/1
f 208/84/1 210/83/1 217/85/1
f 204/86/1 208/84/1 217/85/1
f 204/86/1 217/85/1 212/87/1
f 205/88/1 204/86/1 212/87/1
f 179/89/1 178/90/1 180/91/1
f 174/92/1 181/93/1 179/89/1
f 173/94/1 174/92/1 179/89/1
f 179/89/1 180/91/1 182/95/1
f 173/94/1 179/89/1 182/95/1
f 176/96/1 173/94/1 182/95/1
f 176/96/1 182/95/1 183/97/1
f 175/22/1 176/96/1 183/97/1
f 175/22/1 183/97/1 187/23/1
f 170/98/1 171/99/1 172/100/1
f 165/101/1 170/98/1 172/100/1
f 164/102/1 165/101/1 172/100/1
f 167/103/1 164/102/1 172/100/1
f 169/104/1 167/103/1 172/100/1
f 160/105/1 169/104/1 172/100/1
f 213/106/1 214/107/1 88/108/1
f 213/106/1 88/108/1 89/109/1
f 215/110/1 213/106/1 89/109/1
f 215/110/1 89/109/1 85/111/1
f 216/112/1 215/110/1 85/111/1
f 216/112/1 85/111/1 92/113/1
f 212/87/1 216/112/1 92/113/1
f 212/87/1 92/113/1 93/114/1
f 105/115/1 106/116/1 108/117/1
f 108/117/1 107/118/1 109/119/1
f 108/117/1 109/119/1 113/120/1
f 101/121/1 105/115/1 108/117/1
f 102/122/1 101/121/1 108/117/1
f 102/122/1 108/117/1 113/120/1
f 94/123/1 102/122/1 113/120/1
f 94/123/1 113/120/1 112/124/1
f 94/123/1 112/124/1 135/125/1
f 94/123/1 135/125/1 114/126/1
f 138/127/1 110/128/1 119/129/1
f 119/129/1 120/130/1 118/131/1
f 119/129/1 118/131/1 130/132/1
f 122/133/1 138/127/1 119/129/1
f 121/134/1 122/133/1 119/129/1
f 121/134/1 119/129/1 130/132/1
f 131/135/1 121/134/1 130/132/1
f 131/135/1 130/132/1 127/136/1
f 131/135/1 127/136/1 125/137/1
f 150/138/1 162/139/1 163/140/1
f 145/141/1 151/142/1 150/138/1
f 159/18/1 148/143/1 145/141/1
f 161/144/1 159/18/1 145/141/1
f 150/138/1 163/140/1 152/145/1
f 150/138/1 152/145/1 149/146/1
f 145/141/1 150/138/1 149/146/1
f 116/147/1 117/148/1 137/149/1
f 116/147/1 137/149/1 115/150/1
f 134/151/1 116/147/1 115/150/1
f 134/151/1 115/150/1 133/152/1
f 124/153/1 134/151/1 133/152/1
f 124/153/1 133/152/1 129/154/1
f 125/137/1 124/153/1 129/154/1
f 125/137/1 129/154/1 123/155/1
f 111/156/1 141/157/1 96/158/1
f 96/158/1 104/159/1 97/160/1
f 96/158/1 97/160/1 100/161/1
f 136/162/1 111/156/1 96/158/1
f 132/163/1 136/162/1 96/158/1
f 132/163/1 96/158/1 100/161/1
f 128/164/1 132/163/1 100/161/1
f 128/164/1 100/161/1 98/165/1
f 128/164/1 98/165/1 99/166/1
f 103/167/1 140/168/1 248/49/1
f 128/164/1 99/166/1 103/167/1
f 128/164/1 103/167/1 248/49/1
f 255/169/1 254/170/1 1/171/1
f 128/164/1 248/49/1 255/169/1
f 126/172/1 128/164/1 255/169/1
f 255/169/1 1/171/1 2/173/1
f 235/174/1 234/175/1 233/176/1
f 255/169/1 2/173/1 235/174/1
f 123/155/1 126/172/1 255/169/1
f 125/137/1 123/155/1 255/169/1
f 255/169/1 235/174/1 233/176/1
f 233/176/1 232/177/1 231/178/1
f 231/178/1 230/179/1 229/180/1
f 229/180/1 228/181/1 227/182/1
f 227/182/1 224/183/1 222/184/1
f 222/184/1 221/185/1 220/21/1
f 220/21/1 42/186/1 223/187/1
f 223/187/1 236/188/1 244/189/1
f 244/189/1 245/190/1 246/191/1
f 246/191/1 247/192/1 238/193/1
f 238/193/1 9/194/1 6/195/1
f 7/196/1 8/197/1 177/198/1
f 238/193/1 6/195/1 7/196/1
f 244/189/1 246/191/1 238/193/1
f 220/21/1 223/187/1 244/189/1
f 227/182/1 222/184/1 220/21/1
f 231/178/1 229/180/1 227/182/1
f 255/169/1 233/176/1 231/178/1
f 131/135/1 125/137/1 255/169/1
f 131/135/1 255/169/1 231/178/1
f 231/178/1 227/182/1 220/21/1
f 220/21/1 244/189/1 238/193/1
f 238/193/1 7/196/1 177/198/1
f 177/198/1 166/199/1 168/200/1
f 177/198/1 168/200/1 155/201/1
f 114/126/1 131/135/1 231/178/1
f 94/123/1 114/126/1 231/178/1
f 238/193/1 177/198/1 155/201/1
f 238/193/1 155/201/1 157/202/1
f 95/203/1 94/123/1 231/178/1
f 93/114/1 95/203/1 231/178/1
f 238/193/1 157/202/1 161/144/1
f 238/193/1 161/144/1 145/141/1
f 212/87/1 93/114/1 231/178/1
f 205/88/1 212/87/1 231/178/1
f 220/21/1 238/193/1 145/141/1
f 220/21/1 145/141/1 149/146/1
f 209/71/1 205/88/1 231/178/1
f 197/69/1 209/71/1 231/178/1
f 220/21/1 149/146/1 154/204/1
f 220/21/1 154/204/1 160/105/1
f 197/69/1 231/178/1 220/21/1
f 190/78/1 197/69/1 220/21/1
f 220/21/1 160/105/1 172/100/1
f 220/21/1 172/100/1 175/22/1
f 187/23/1 190/78/1 220/21/1
f 3/37/3 4/31/3 46/39/3
f 144/205/1 52/206/1 56/207/1
f 55/208/1 144/205/1 56/207/1
f 55/208/1 56/207/1 53/209/1
f 57/210/1 50/211/1 51/212/1
f 54/213/1 55/208/1 53/209/1
f 57/210/1 51/212/1 48/214/1
f 54/213/1 53/209/1 57/210/1
f 63/215/1 60/216/1 59/217/1
f 58/218/1 63/215/1 59/217/1
f 66/219/1 58/218/1 59/217/1
f 71/220/1 143/221/1 64/222/1
f 67/223/1 65/224/1 71/220/1
f 74/225/1 67/223/1 71/220/1
f 74/225/1 71/220/1 64/222/1
f 72/226/1 74/225/1 64/222/1
f 72/226/1 64/222/1 66/219/1
f 73/51/1 72/226/1 66/219/1
f 73/51/1 66/219/1 59/217/1
f 73/51/1 59/217/1 54/213/1
f 57/210/1 48/214/1 49/227/1
f 54/213/1 57/210/1 49/227/1
f 49/227/1 46/228/1 40/10/1
f 40/10/1 37/229/1 34/3/1
f 28/230/1 29/231/1 31/232/1
f 49/227/1 40/10/1 34/3/1
f 28/230/1 31/232/1 30/233/1
f 54/213/1 49/227/1 34/3/1
f 34/3/11 28/230/11 30/233/11
f 24/234/1 23/12/1 20/235/1
f 24/234/1 20/235/1 21/236/1
f 24/234/1 21/236/1 19/237/1
f 17/238/1 15/239/1 16/240/1
f 16/240/1 12/241/1 13/242/1
f 16/240/1 13/242/1 14/243/1
f 17/238/1 16/240/1 14/243/1
f 17/238/1 14/243/1 11/244/1
f 18/245/1 17/238/1 11/244/1
f 10/246/1 9/194/1 238/193/1
f 11/244/1 10/246/1 238/193/1
f 238/193/1 239/247/1 240/248/1
f 240/248/1 241/249/1 242/250/1
f 243/251/1 237/252/1 249/253/1
f 238/193/1 240/248/1 242/250/1
f 242/250/1 243/251/1 249/253/1
f 253/254/1 252/255/1 251/256/1
f 242/250/1 249/253/1 253/254/1
f 11/244/1 238/193/1 242/250/1
f 18/245/1 11/244/1 242/250/1
f 242/250/1 253/254/1 251/256/1
f 251/256/1 250/257/1 248/49/1
f 248/49/1 140/168/1 139/258/1
f 248/49/1 139/258/1 86/259/1
f 242/250/1 251/256/1 248/49/1
f 22/260/1 18/245/1 242/250/1
f 19/237/1 22/260/1 242/250/1
f 248/49/1 86/259/1 87/261/1
f 87/261/1 90/262/1 79/263/1
f 79/263/1 80/264/1 78/265/1
f 87/261/1 79/263/1 78/265/1
f 19/237/1 242/250/1 248/49/1
f 24/234/1 19/237/1 248/49/1
f 248/49/1 87/261/1 78/265/1
f 248/49/1 78/265/1 81/266/1
f 30/233/1 24/234/1 248/49/1
f 73/51/1 54/213/1 34/3/1
f 34/3/1 30/233/1 248/49/1
f 248/49/1 81/266/1 84/267/1
f 248/49/1 84/267/1 76/268/1
f 73/51/1 34/3/1 248/49/1
f 248/49/1 76/268/1 77/50/1
